# xmcd
#
# Track frame offsets:
#	150
#	18755
#	26025
#	34705
#	45075
#	60112
#	72777
#	81600
#	92157
#	105875
#	116927
#	127040
#	140307
#	150302
#	170257
#
# Disc length: 2410 seconds
#
# Revision: 0
# Processed by: cddbd v1.5.1PL0 Copyright (c) Steve Scherf et al.
# Submitted via: audiograbber 1.81.02
#
DISCID=b009680f
DTITLE=Tim Thomas und Olaf Franke - Mit Freddy durch die Bibel 6 - Glück für Aa
DTITLE=ron (www.gerth.de)
DYEAR=2005
DGENRE=Musical
TTITLE0=Eugen schreibt ein Hörspiel
TTITLE1=Konkordanz-Rap
TTITLE2=Freddy schaut in der Konkordanz nach
TTITLE3=Moses Klage
TTITLE4=Gott redet mit Mose
TTITLE5=Der Pharao empfängt Mose und Aaron
TTITLE6=Arbeiteraufstand
TTITLE7=Die Plagen werden angekündigt
TTITLE8=Herr, erbarme dich
TTITLE9=Die letzte Plage
TTITLE10=Arbeiteraufstand-reprise
TTITLE11=Gottes Zehn-Punkt-Plan
TTITLE12=Als wir noch in Ägypten schippten
TTITLE13=Aarons Fehler
TTITLE14=Go Down, Moses
EXTD=
EXTT0=
EXTT1=
EXTT2=
EXTT3=
EXTT4=
EXTT5=
EXTT6=
EXTT7=
EXTT8=
EXTT9=
EXTT10=
EXTT11=
EXTT12=
EXTT13=
EXTT14=
PLAYORDER=
